<svg viewBox="0 0 148 44" xmlns="http://www.w3.org/2000/svg" style="fill-rule:evenodd;clip-rule:evenodd;stroke-linejoin:round;stroke-miterlimit:2">
    <path d="M939.9 166.197c-10.74-.031-15.465 2.394-18.694 10.983-21.721 57.375-.227 214.955 23.234 216.663 36.739 2.664 62.56-114.235 68.75-202.205 1.22-17.359-5.57-23.322-16.241-24.074-2.245-.171-42.4-.578-48.598-.997-3.175-.223-5.973-.362-8.451-.37Zm-137.036 34.188c-12.955 0-41.969 4.908-56.267 7.153-9.775 1.773-11.097 1.773-12.032 5.34-1.321 5.371-3.565 57.59-4.414 68.741-3.158 0-18.779-.462-22.356 0-6.693.451-8.453 1.331-8.453 25.448 0 23.633-.001 25.889 7.573 25.889 3.136 0 16.929-1.794 20.077-1.794-2.245 21.872-4.03 42.83-4.03 60.705 0 35.697 10.283 87.564 78.54 87.005 73.091-.569 75.227-33.291 81.093-44.022 2.782-5.028-23.063-30.037-29.218-30.037-1.279 0-14.998 26.017-26.46 26.887-12.118.892-23.611-21.107-23.611-41.625 0-21.86 1.752-42.851 2.686-62.048 23.634-.87 36.587-.001 52.185-.871 8.046-.429 10.291-1.795 11.161-15.62v-16.983c0-13.396-.869-16.081-9.367-16.081-6.241 0-13.825-.001-22.322.472-8.476 0-18.295.452-28.994.892.902-15.63 1.332-24.558 2.224-33.023.451-4.899 2.686-29.918 2.686-35.278 0-8.917-1.344-11.15-10.701-11.15Zm-220.869 74.35c-65.626 0-131.648 31.25-131.648 104.9 0 46.847 32.55 101.74 120.477 101.74 92.836 0 120.508-61.134 120.508-111.129 0-62.478-42.842-95.511-109.337-95.511Zm-646.587 2.157c-5.812 0-51.339 8.907-55.797 10.229-10.71 2.255-12.944 4.908-12.944 8.925 0 6.704 50.886 112.024 75.873 154.897 15.608 27.651 23.204 29.444 29.886 29.444 9.829 0 16.092-4.91 26.791-18.746 19.627-24.546 38.835-58.899 47.289-73.606l25.439 65.57c6.252 15.158 12.954 26.331 26.801 26.331 10.656 0 19.616-7.585 28.543-18.295 12.063-14.298 30.348-44.184 46.859-74.531 10.721-18.735 45.955-83.909 45.955-94.619 0-4.909-3.555-7.142-9.367-8.475-7.573-1.794-32.592-7.124-38.833-7.124-8.014 0-9.969 1.741-17.403 19.605-.645 1.569-27.18 85.275-39.244 85.275-11.279 0-32.989-91.235-33.913-93.287-4.233-9.41-7.154-9.842-10.72-9.842-3.556 0-39.748 5.372-54.895 9.401-.913 0-9.818 2.674-9.818 8.453 0 3.577 16.05 38.845 16.05 38.845S2.074 382.653-7.938 382.653c-9.84 0-38.81-82.963-39.702-85.702-5.253-15.727-8.938-20.059-16.952-20.059Zm397.702 3.574c-65.615 0-131.636 31.252-131.636 104.902 0 46.837 32.548 101.731 120.475 101.731 92.836 0 120.51-61.136 120.51-111.132 0-62.488-42.864-95.501-109.349-95.501Zm253.504 56.057c35.192 0 44.216 23.666 44.216 35.214 0 22.602-31.131 44.731-58.288 44.731-25.127 0-49.768-15.091-49.768-38.714 0-28.134 39.208-41.231 63.84-41.231Zm-248.882 5.746c35.213 0 44.225 23.632 44.225 35.18 0 22.624-31.153 44.731-58.288 44.731-25.127 0-49.737-15.06-49.737-38.683 0-28.177 39.178-41.228 63.8-41.228Zm613.945 70.267c-21.861 0-56.678 11.624-56.678 36.6 0 20.97 21.882 34.377 44.173 34.377 24.117 0 51.789-19.639 51.789-39.716 0-10.291-8.045-31.261-39.284-31.261Z" style="fill:#669510;fill-rule:nonzero" transform="matrix(.12465 0 0 .12465 19.033 -18.782)"/>
</svg>
